<?xml version="1.0" standalone="no"?>
<!DOCTYPE svg PUBLIC "-//W3C//DTD SVG 20010904//EN"
 "http://www.w3.org/TR/2001/REC-SVG-20010904/DTD/svg10.dtd">
<svg version="1.0" xmlns="http://www.w3.org/2000/svg"
 width="483.000000pt" height="483.000000pt" viewBox="0 0 483.000000 483.000000"
 preserveAspectRatio="xMidYMid meet">
<metadata>
Created by potrace 1.11, written by Peter Selinger 2001-2013
</metadata>
<g transform="translate(0.000000,483.000000) scale(0.100000,-0.100000)"
fill="#000000" stroke="none">
<path d="M2295 4048 c-79 -10 -93 -13 -101 -20 -3 -4 -12 -4 -20 -1 -8 3 -21
0 -29 -7 -8 -7 -15 -10 -15 -7 0 20 -264 -101 -288 -131 -7 -9 -14 -16 -15
-14 -6 9 -36 -12 -30 -21 3 -5 1 -7 -4 -4 -6 4 -22 -3 -35 -16 -14 -12 -46
-41 -72 -64 -26 -24 -44 -43 -41 -43 4 0 -8 -12 -25 -26 -17 -15 -29 -29 -26
-31 3 -3 -5 -14 -17 -24 -12 -10 -19 -18 -15 -19 4 0 -4 -12 -17 -26 -14 -15
-25 -33 -25 -40 0 -7 -3 -14 -7 -16 -14 -6 -74 -129 -68 -139 4 -5 2 -9 -2 -9
-5 0 -19 -30 -30 -67 -42 -135 -47 -172 -47 -333 0 -106 5 -155 23 -230 13
-52 27 -99 32 -105 5 -5 9 -15 9 -22 0 -17 49 -124 65 -143 8 -8 14 -18 14
-23 1 -32 225 -296 239 -282 3 3 11 -4 19 -15 8 -11 19 -20 24 -20 5 0 19 -8
30 -19 11 -10 37 -27 57 -37 20 -10 49 -27 65 -37 15 -10 27 -16 27 -12 0 3
12 0 28 -8 47 -25 120 -52 129 -49 2 0 17 -4 35 -9 101 -31 249 -40 378 -24
30 4 61 7 68 7 15 2 15 1 0 33 -6 14 -15 25 -20 25 -4 0 -7 3 -6 8 2 4 -8 35
-22 69 l-24 62 -91 -1 c-163 -2 -269 20 -394 81 -69 34 -161 92 -180 114 -7 9
-18 14 -25 10 -6 -3 -8 -3 -4 1 9 11 -23 46 -35 39 -6 -3 -7 -1 -3 5 3 5 2 12
-2 14 -5 1 -28 28 -53 58 -66 82 -135 223 -153 312 -3 13 -9 46 -15 73 -15 71
-6 268 15 340 9 33 17 68 18 78 0 9 3 17 7 17 4 0 13 17 20 38 7 20 18 46 26
58 7 11 10 24 6 27 -3 4 -1 7 4 7 6 0 24 21 41 48 16 26 41 58 55 72 15 14 27
31 27 39 0 8 3 12 6 9 7 -8 50 34 46 45 -1 5 1 6 6 3 4 -2 23 9 41 25 19 16
37 29 40 29 4 0 17 9 29 20 12 12 22 18 22 14 0 -4 9 1 20 11 11 10 20 15 20
12 0 -4 15 2 33 12 39 22 155 58 217 68 57 9 219 8 285 -2 28 -4 47 -4 43 1
-4 4 -4 12 1 18 17 21 59 161 51 169 -4 5 -25 11 -46 14 -22 2 -52 7 -69 9
-56 9 -190 10 -250 2z"/>
<path d="M2839 3850 l-36 -100 52 -30 c28 -16 73 -48 99 -71 26 -23 49 -40 51
-37 6 6 75 197 75 207 0 13 -184 132 -202 131 -2 0 -19 -45 -39 -100z"/>
<path d="M2348 3635 c-2 -2 -24 -6 -50 -9 -111 -14 -233 -79 -332 -180 -80
-79 -147 -188 -159 -256 -3 -14 -10 -43 -16 -66 -9 -35 -14 -110 -10 -179 1
-31 28 -154 38 -173 5 -9 15 -30 22 -47 23 -52 86 -139 131 -181 45 -43 138
-109 138 -99 0 4 6 0 14 -8 8 -7 52 -26 98 -41 65 -22 103 -28 178 -29 52 -1
107 2 122 6 24 6 28 3 45 -38 10 -25 22 -45 26 -45 5 0 6 -4 2 -9 -3 -5 1 -15
8 -23 8 -7 12 -19 9 -26 -2 -6 0 -12 6 -12 5 0 15 -18 22 -40 7 -22 17 -40 22
-40 4 0 7 -3 6 -7 -4 -14 13 -53 23 -53 5 0 8 -3 7 -7 -1 -5 3 -23 10 -42 11
-31 14 -33 44 -27 17 3 78 29 135 57 103 50 104 51 86 71 -10 11 -17 23 -17
27 3 14 -74 183 -88 192 -5 3 -9 9 -8 13 1 4 -10 35 -24 69 l-26 62 70 74 c38
40 67 77 64 82 -3 5 -1 9 4 9 8 0 42 58 47 80 1 3 7 17 13 31 10 26 30 95 38
134 6 27 6 165 0 190 -2 11 -9 42 -16 69 -13 59 -58 156 -71 156 -6 0 -8 4 -5
9 10 16 -87 129 -155 181 -34 27 -179 103 -179 94 0 -2 -8 0 -17 5 -10 5 -34
12 -53 16 -42 7 -196 15 -202 10z m128 -230 c147 -19 288 -140 331 -285 58
-197 -38 -407 -224 -492 -124 -56 -296 -41 -396 35 -20 15 -41 27 -47 27 -6 0
-9 4 -5 9 3 6 -3 15 -14 20 -10 6 -30 28 -42 48 -13 21 -27 41 -32 44 -5 3 -8
8 -7 10 3 8 -12 59 -19 59 -6 0 -11 35 -15 115 -6 100 48 230 123 297 22 20
38 38 36 42 -3 3 -2 4 1 1 4 -2 19 4 33 14 38 26 111 52 172 60 30 4 57 6 60
4 4 -1 24 -5 45 -8z"/>
<path d="M3202 3522 l-43 -118 26 -58 c52 -118 69 -201 69 -341 0 -91 -5 -149
-17 -193 -41 -153 -113 -286 -208 -387 l-50 -53 47 -96 c26 -53 50 -96 54 -96
14 0 154 150 197 211 197 282 247 639 134 960 -41 116 -136 289 -159 289 -4 0
-26 -53 -50 -118z"/>
<path d="M2398 1511 c-34 -27 -42 -53 -29 -94 30 -91 161 -72 161 22 -1 74
-76 115 -132 72z"/>
<path d="M2624 1508 c-4 -6 -7 -577 -4 -705 0 -21 4 -23 65 -23 l65 0 0 368 0
368 -61 0 c-33 0 -63 -4 -65 -8z"/>
<path d="M2192 1458 c-29 -36 -6 -98 36 -98 48 1 74 69 36 97 -23 16 -58 17
-72 1z"/>
<path d="M835 1322 c-49 -4 -115 -24 -115 -34 0 -5 -4 -7 -9 -4 -12 8 -103
-73 -95 -85 3 -5 1 -9 -4 -9 -34 0 -61 -200 -32 -235 7 -8 10 -15 6 -15 -4 0
1 -12 11 -27 19 -31 93 -103 105 -103 4 0 10 0 13 0 3 1 13 -6 21 -15 16 -15
25 -17 117 -20 59 -2 127 13 127 27 0 5 4 7 9 3 5 -3 17 2 25 11 9 8 16 12 16
8 0 -4 16 7 35 26 l35 34 -27 22 -27 21 -19 -24 c-74 -93 -287 -88 -345 9 -9
15 -19 28 -23 28 -12 0 -22 53 -23 118 -1 34 2 62 6 62 5 0 8 6 8 13 0 36 94
113 150 124 27 5 85 5 110 -1 39 -9 100 -38 100 -48 0 -5 6 -6 13 -2 6 4 9 4
5 -1 -4 -4 -3 -14 3 -21 9 -11 16 -11 41 2 31 16 31 20 -14 66 -42 42 -151 77
-223 70z"/>
<path d="M1433 1319 c-126 -22 -223 -137 -224 -265 -1 -55 26 -154 42 -154 5
0 9 -5 9 -12 0 -17 56 -64 105 -90 54 -29 155 -32 213 -7 23 10 42 23 42 29 0
6 4 9 9 6 4 -3 16 3 26 14 26 29 35 25 35 -19 0 -37 1 -38 32 -37 l33 1 0 260
0 260 -32 3 c-32 3 -33 2 -33 -37 0 -23 -2 -41 -5 -41 -3 0 -18 12 -33 26 -52
50 -142 76 -219 63z m158 -90 c18 -13 29 -17 24 -9 -5 9 -4 11 3 6 7 -4 12
-14 12 -22 0 -8 4 -14 9 -14 5 0 19 -20 31 -45 26 -53 28 -133 5 -188 -17 -41
-70 -97 -92 -97 -8 0 -11 -5 -7 -12 4 -7 3 -8 -5 -4 -6 4 -17 3 -24 -2 -18
-14 -119 -7 -153 12 -74 40 -123 123 -119 200 6 87 67 172 143 197 47 15 138
3 173 -22z"/>
<path d="M3107 1315 c-26 -6 -59 -23 -72 -35 -23 -22 -25 -22 -26 -4 -1 10 -1
22 0 27 0 4 -12 7 -29 8 -16 0 -47 1 -67 2 l-38 0 -3 -266 -2 -267 65 0 c36 0
65 3 66 8 1 4 2 77 3 162 3 207 24 250 120 250 45 0 65 -24 82 -102 1 -5 2
-78 3 -163 l1 -155 60 0 c39 0 62 4 65 13 3 6 6 82 8 168 3 132 6 161 22 185
27 43 46 53 91 54 76 0 85 -26 88 -252 l1 -163 68 -3 68 -3 -1 198 c-2 253
-14 293 -103 333 -70 32 -165 12 -229 -48 l-28 -25 -21 27 c-42 54 -111 72
-192 51z"/>
<path d="M2007 1295 c-20 -14 -37 -30 -37 -35 0 -6 -4 -10 -10 -10 -5 0 -10
14 -10 30 0 27 -3 30 -33 30 l-33 0 -1 -263 -1 -263 34 0 34 0 1 131 c1 184 5
221 33 279 14 28 25 48 26 43 0 -4 11 0 25 9 16 10 36 14 54 11 23 -5 30 -2
40 19 16 35 7 44 -42 44 -29 0 -54 -8 -80 -25z"/>
<path d="M2418 1312 l-38 -3 0 -265 0 -265 67 3 68 3 0 260 0 259 -30 6 c-16
3 -47 4 -67 2z"/>
<path d="M3843 1312 l-43 -3 3 -187 c3 -185 3 -188 32 -241 41 -74 86 -101
181 -108 65 -5 79 -3 126 20 102 50 119 94 125 334 l6 181 -29 4 c-16 2 -48 1
-71 0 l-42 -4 -3 -183 c-3 -179 -4 -184 -27 -204 -52 -45 -128 -26 -153 39 -5
14 -10 98 -10 187 l0 161 -26 4 c-15 1 -46 2 -69 0z"/>
<path d="M2199 1308 c-1 -4 -1 -489 0 -508 1 -21 61 -21 62 0 1 18 1 492 0
503 -1 6 -60 11 -62 5z"/>
</g>
</svg>
