<?xml version="1.0" standalone="no"?>
<!DOCTYPE svg PUBLIC "-//W3C//DTD SVG 20010904//EN"
 "http://www.w3.org/TR/2001/REC-SVG-20010904/DTD/svg10.dtd">
<svg version="1.0" xmlns="http://www.w3.org/2000/svg"
 width="1136.000000pt" height="1136.000000pt" viewBox="0 0 1136.000000 1136.000000"
 preserveAspectRatio="xMidYMid meet">
<metadata>
Created by potrace 1.11, written by Peter Selinger 2001-2013
</metadata>
<g transform="translate(0.000000,1136.000000) scale(0.100000,-0.100000)"
fill="#000000" stroke="none">
<path d="M5457 11354 c-1 -1 -51 -4 -112 -8 -60 -4 -123 -8 -140 -10 -16 -2
-66 -7 -109 -10 -43 -4 -87 -9 -96 -11 -9 -2 -41 -6 -71 -10 -61 -7 -102 -13
-139 -20 -14 -3 -41 -7 -60 -10 -161 -25 -453 -94 -640 -150 -47 -14 -92 -27
-100 -29 -73 -19 -452 -161 -575 -216 -83 -37 -446 -218 -505 -251 -286 -162
-592 -372 -840 -578 -164 -136 -183 -154 -400 -371 -225 -225 -380 -406 -586
-685 -78 -106 -243 -363 -309 -480 -97 -175 -123 -223 -180 -340 -131 -271
-267 -618 -340 -870 -9 -33 -23 -80 -31 -105 -41 -136 -124 -523 -139 -654 -4
-28 -8 -53 -10 -56 -2 -3 -6 -37 -10 -75 -3 -39 -8 -77 -10 -85 -2 -8 -7 -51
-10 -95 -4 -44 -8 -93 -11 -110 -19 -160 -20 -795 0 -903 2 -9 7 -57 11 -106
4 -50 8 -97 10 -105 4 -25 15 -102 20 -151 3 -25 14 -94 25 -155 27 -147 29
-163 41 -215 6 -25 12 -54 15 -65 40 -206 195 -692 289 -910 7 -16 27 -64 45
-105 42 -96 178 -374 228 -465 193 -352 419 -674 714 -1018 65 -76 399 -412
488 -491 96 -85 330 -271 450 -358 434 -313 946 -578 1470 -759 107 -37 389
-122 442 -133 13 -3 61 -14 108 -26 89 -22 293 -64 370 -75 25 -4 54 -9 64
-11 11 -2 42 -6 69 -9 28 -3 53 -8 56 -9 3 -2 38 -7 76 -10 39 -4 81 -8 95
-10 38 -5 196 -18 280 -22 93 -5 536 -4 607 1 138 10 285 23 333 30 14 2 49 7
79 10 30 4 61 8 70 10 17 3 73 11 135 20 21 3 41 7 45 9 3 2 31 7 61 11 30 4
56 8 58 10 2 2 -43 110 -96 225 -11 25 -63 142 -115 260 -53 118 -111 250
-131 293 -20 42 -36 79 -36 82 0 3 -13 32 -29 65 -17 34 -35 77 -41 96 -10 30
-41 60 -51 49 -2 -2 -31 -7 -64 -10 -33 -4 -73 -9 -90 -11 -223 -29 -758 -23
-993 11 -26 3 -63 9 -82 11 -213 30 -482 90 -695 156 -101 30 -325 109 -380
133 -272 119 -407 185 -592 291 -138 79 -405 259 -498 335 -375 308 -585 523
-833 851 -212 282 -443 685 -562 983 -4 11 -15 36 -23 55 -85 198 -228 689
-252 870 -4 32 -23 138 -29 166 -2 12 -7 57 -11 100 -4 43 -9 81 -10 84 -2 3
-7 52 -11 110 -15 197 -9 714 10 815 2 11 7 49 11 85 14 130 40 285 77 450
138 619 413 1216 798 1735 278 375 647 732 1030 995 63 44 120 83 125 88 6 4
71 44 146 89 158 94 405 219 569 288 110 46 404 153 444 161 11 2 40 10 65 18
41 13 150 42 191 51 8 2 38 9 65 15 64 15 83 19 120 25 17 3 37 8 45 10 8 2
33 7 55 10 23 3 50 7 60 9 11 2 42 7 68 10 27 4 57 9 68 11 10 2 51 6 91 10
40 3 96 8 123 11 99 10 203 14 360 14 315 0 563 -25 873 -86 73 -14 134 -25
136 -23 2 4 55 148 156 429 15 41 73 200 130 353 56 153 99 281 97 284 -10 9
-314 78 -397 89 -25 3 -48 8 -51 10 -4 2 -28 6 -55 9 -27 3 -56 8 -64 10 -8 2
-40 7 -70 10 -30 3 -62 8 -70 10 -8 2 -49 7 -90 10 -41 4 -89 8 -106 11 -99
12 -705 28 -717 18z"/>
<path d="M8127 10657 c-134 -359 -347 -945 -347 -953 0 -2 4 -4 9 -4 31 0 410
-233 576 -353 146 -107 457 -369 486 -410 4 -5 14 15 24 44 10 30 26 74 36 99
10 25 51 137 92 250 119 328 207 569 238 652 16 43 29 83 29 90 0 19 -222 188
-425 325 -176 118 -562 340 -650 373 -22 8 -25 3 -68 -113z"/>
<path d="M10161 9128 c-10 -25 -123 -335 -151 -413 -10 -27 -85 -230 -165
-450 -81 -220 -149 -409 -152 -421 -3 -13 18 -66 55 -140 234 -470 388 -989
448 -1509 32 -283 36 -656 9 -920 -11 -115 -18 -172 -20 -186 -2 -9 -6 -40
-10 -70 -4 -30 -8 -56 -10 -59 -2 -3 -6 -27 -10 -55 -17 -133 -95 -440 -160
-638 -130 -393 -297 -739 -520 -1077 -196 -296 -355 -490 -602 -737 -79 -78
-143 -144 -143 -148 0 -6 28 -66 128 -275 33 -69 81 -170 107 -225 26 -55 75
-156 108 -225 117 -245 147 -311 147 -320 0 -20 -3 -22 159 115 123 104 233
208 376 355 145 148 159 164 384 435 108 131 347 485 458 680 137 239 288 553
355 734 11 31 25 62 31 69 5 6 7 12 3 12 -4 0 0 12 7 27 38 76 167 493 212
688 22 96 55 253 61 295 3 19 7 42 9 50 2 8 7 33 10 55 3 23 7 51 10 64 2 13
7 49 11 80 3 31 8 65 10 76 2 11 7 47 10 80 3 33 7 74 9 90 12 91 19 301 19
540 0 271 -8 428 -29 600 -2 22 -7 63 -11 90 -7 59 -31 227 -39 270 -41 216
-101 467 -153 641 -46 151 -145 436 -177 509 -7 17 -37 84 -65 150 -47 107
-196 410 -235 475 -8 14 -44 77 -81 140 -105 179 -372 570 -390 570 -2 0 -8
-10 -13 -22z"/>
<path d="M5617 9114 c-1 -1 -58 -4 -127 -8 -69 -3 -138 -8 -155 -11 -16 -2
-70 -9 -120 -15 -72 -9 -242 -42 -389 -75 -77 -18 -345 -108 -436 -147 -25
-10 -54 -23 -65 -27 -67 -28 -344 -170 -417 -215 -99 -61 -231 -149 -269 -180
-14 -12 -41 -32 -59 -46 -110 -82 -387 -345 -496 -470 -90 -105 -334 -444
-334 -466 0 -3 -8 -18 -19 -32 -25 -35 -140 -259 -175 -342 -16 -36 -34 -78
-42 -95 -42 -96 -141 -399 -158 -485 -3 -14 -14 -65 -25 -115 -11 -49 -22
-108 -26 -130 -3 -23 -7 -50 -9 -61 -2 -12 -7 -43 -10 -70 -4 -27 -8 -65 -11
-84 -17 -141 -22 -397 -10 -591 6 -103 8 -125 20 -209 3 -22 8 -59 11 -82 12
-94 67 -336 99 -441 138 -457 334 -831 619 -1187 92 -114 120 -145 256 -280
354 -353 752 -607 1234 -786 103 -39 307 -101 386 -118 14 -3 45 -10 70 -16
71 -15 82 -17 130 -25 25 -4 54 -9 65 -11 25 -5 90 -15 130 -19 17 -2 62 -7
100 -11 39 -5 171 -8 295 -9 274 0 367 8 593 47 65 11 120 18 122 16 3 -3 85
-176 126 -265 12 -26 42 -91 66 -143 25 -52 67 -144 95 -205 73 -158 100 -218
148 -320 23 -49 114 -245 202 -435 88 -189 178 -383 200 -430 22 -47 56 -121
76 -165 19 -44 38 -83 42 -87 6 -9 214 61 405 136 262 103 545 241 795 387
170 101 182 108 194 112 9 3 -15 58 -155 356 -27 57 -49 105 -49 107 0 1 -29
64 -65 139 -36 75 -65 138 -65 140 0 2 -24 54 -54 117 -29 62 -65 138 -78 168
-69 150 -156 337 -204 439 -30 62 -54 115 -54 116 0 2 -29 65 -65 140 -36 76
-65 139 -65 140 0 2 -20 47 -45 99 -25 53 -45 100 -45 105 0 4 44 44 98 88
139 116 315 291 422 423 25 30 48 57 51 60 14 13 131 174 181 250 179 273 328
593 420 900 49 164 99 386 113 505 4 28 8 61 11 75 26 161 26 679 0 830 -4 22
-9 54 -22 151 -5 42 -54 261 -65 295 -5 17 -11 40 -14 52 -2 11 -18 65 -35
119 -388 1214 -1402 2106 -2656 2338 -158 29 -277 44 -425 51 -106 6 -259 10
-262 8z m298 -1247 c11 -3 45 -8 75 -12 371 -46 765 -216 1075 -463 112 -89
285 -266 359 -367 17 -22 32 -42 35 -45 17 -15 125 -189 169 -271 170 -321
260 -684 256 -1034 -1 -109 -11 -266 -19 -295 -2 -8 -7 -35 -10 -60 -3 -25
-10 -61 -15 -80 -5 -19 -11 -46 -14 -60 -21 -113 -101 -334 -174 -480 -135
-269 -327 -513 -552 -702 -62 -52 -236 -178 -246 -178 -3 0 -18 -8 -32 -19
-122 -85 -425 -208 -629 -256 -262 -62 -571 -77 -793 -40 -14 2 -42 6 -63 9
-177 27 -411 100 -594 187 -692 328 -1166 1004 -1241 1769 -14 143 -7 433 13
524 2 11 7 38 10 58 8 59 54 248 74 308 158 458 421 820 800 1099 303 223 694
372 1068 407 37 4 69 8 71 9 5 4 355 -4 377 -8z"/>
</g>
</svg>
